<?xml version="1.0" encoding="UTF-8"?>
<svg id="Layer_2" data-name="Layer 2" xmlns="http://www.w3.org/2000/svg" viewBox="0 0 459.98 458.98">
  <defs>
    <style>
      .cls-1 {
        fill: #0d131a;
      }

      .cls-1, .cls-2, .cls-3, .cls-4, .cls-5, .cls-6 {
        stroke-width: 0px;
      }

      .cls-2 {
        fill: #d60040;
      }

      .cls-3 {
        fill: #7cbeb3;
      }

      .cls-4 {
        fill: #fff;
      }

      .cls-5 {
        fill: #006359;
      }

      .cls-6 {
        fill: #68ae28;
      }
    </style>
  </defs>
  <g id="katman_1" data-name="katman 1">
    <g>
      <path class="cls-6" d="m173.1,182.35c-7.58,10.13-18.24,21.11-31.98,32.93l-37.26,30.17-5.96,4.82c-6.86,5.56-13.08,10.84-18.67,15.85-7.35-2.53-14.24-6.89-20.65-13.11-6.89-6.64-12.41-14.63-16.58-23.93-.42-.94-.84-1.88-1.24-2.84-10.4-25.51-9.42-54.53,2.95-87.07,8.36-18.83,14.51-34.58,18.45-47.22,7.24-23.61,7.03-41.46-.63-53.55-1.62-2.53-2.32-4.04-2.11-4.53.21-.56,1.79-.95,4.74-1.16,6.32-.35,13.46.98,21.4,4.01,7.74,3.03,14.13,6.99,19.2,11.86.48.64,1,1.26,1.56,1.85,7.66,7.94,13.39,16.8,17.18,26.56,2.46,6.18,6.18,19.57,11.17,40.16,4.64,18.97,9.45,32.68,14.44,41.11,5.01,8.45,13,16.49,23.97,24.1ZM97.47,38.48c1.3.82,2.54,1.68,3.74,2.58-.73-2.8-1.02-5.91-.87-9.35l-.32-.38c-1.26-1.26-2.21-1.76-2.85-1.48-.56.28-.77,1.19-.63,2.74l.93,5.88Zm161.41,21.95c-16.23-13.77-38.93-21.19-68.1-22.24-24.95-.91-42.8-3.69-53.55-8.33-8.71-3.72-15-10.01-18.87-18.87-.84-1.9-1.55-2.92-2.11-3.06-.63-.21-1.65.49-3.06,2.11-4.71,5.2-7.48,11.56-8.33,19.08-.84,7.73.77,13.74,4.85,18.03,8.22,8.43,14.72,18.38,19.5,29.83,2.95,7.1,6.54,18.94,10.75,35.52,5.13,20.17,10.79,35.17,16.97,45.01,4.31,6.87,10.37,13.15,18.16,18.86,1.77-12.57,4.21-25.43,7.35-38.58,6.96-28.95,14.37-44.73,22.24-47.33,4.36-1.41,11.7,0,22.03,4.22,8.04,3.31,14.95,7.2,20.76,11.64,10.39-3.4,21.22-5.97,32.5-7.71-1.33-14.64-8.37-27.38-21.11-38.2Zm31.41,5.59c-10.38-9.78-24.19-16-41.42-18.68,4.69,2.55,9.06,5.42,13.06,8.66,14.45,11.63,22.32,25.57,23.66,41.83,6.08-.78,12.29-1.31,18.62-1.62.69-10.68-3.95-20.74-13.93-30.19ZM32.66,222.24c-.21-.66-.38-1.33-.57-1.99-7.66-26.2-5.45-54.06,6.69-83.6l9.28-20.98c4.43-10.26,7.77-19.22,10.01-26.88,3.84-12.86,5.28-23.82,4.34-32.9-.72-.42-1.42-.73-2.12-.94l-2-.11.42,3.37.63,6.32c.21,9.56-2.92,22.07-9.38,37.53-5.06,12.3-11.56,25.02-19.5,38.16-4.27,7.08-7.95,14-11.09,20.75-15.23,32.84-17.06,61.76-5.46,86.77,5.27,11.38,12.83,20.7,22.66,27.93,7.87,5.71,15.45,9.07,22.75,10.08,4.4-4.91,9.67-10.21,15.8-15.87-20.52-6.71-34.68-22.57-42.45-47.65Z"/>
      <path class="cls-2" d="m268.48,188.04c-3.55-2.16-6.89-.43-10.03,5.22-2.95,5.2-4.99,12.4-6.11,21.61-1.19,9.49-1.05,18.34.42,26.56,1.64,8.72,4.61,15.08,8.87,19.15,20.02,2.22,30.92,1.33,32.66-2.7,1.83-4.43,1.51-12.16-.95-23.19-2.6-11.53-6.61-21.89-12.02-31.1-4.13-7-8.41-12.18-12.84-15.55Zm5.25,44.96c-1.55,3.51-3.44,5.27-5.69,5.27-2.11,0-3.94-1.9-5.48-5.69-1.69-4.01-2.6-9.07-2.74-15.18-.28-7.38.49-13.39,2.32-18.03,1.62-4.29,3.62-6.43,6.01-6.43,2.25,0,4.22,2.21,5.9,6.64,1.69,4.71,2.49,10.58,2.42,17.6-.14,6.68-1.05,11.95-2.74,15.81Zm142.31,12.44c-3.17-1.85-4.6-10.94-4.31-27.2.31.73.65,1.41,1.04,2.01,1.05,1.55,2.11,2.32,3.16,2.32,1.69,0,3.09-1.55,4.22-4.64,1.19-3.44,1.76-8.26,1.69-14.44-.14-6.54-1.02-11.6-2.64-15.18-1.12-2.67-2.32-4.04-3.58-4.11-.24-.02-.49.04-.74.13.52-2.1,1.11-3.83,1.76-5.17,1.64-.02,3.4,1.54,5.3,4.73,2.39,3.94,4.39,9.31,6.01,16.13,3.86,16.3,3.86,30.94.03,43.92-5.74,2.26-9.73,2.78-11.94,1.51Z"/>
      <path class="cls-5" d="m348.79,129.48c13.63-6.89,22.17-9.45,25.62-7.7,1.55.77-.74,7.59-6.85,20.45-6.18,13.07-11,19.64-14.44,19.71-4.36-.28-9.66-2.53-15.92-6.75-6.11-4.22-9.14-7.48-9.07-9.8.07-3.72,6.96-9.03,20.66-15.92Zm-35,51.97c2.88,3.72,4.57,5.59,5.06,5.59.42,0,1.16-.7,2.21-2.11l1.9-2.95c.21-.56-.56-3.16-2.32-7.8-1.76-4.71-3.02-7.1-3.79-7.17-.63-.07-2.04.88-4.22,2.85s-3.27,3.44-3.27,4.43c.07.91,1.55,3.3,4.43,7.17Zm66.3-.32c-2.18-.14-5.76,3.97-10.75,12.33-4.85,8.29-6.99,13.25-6.43,14.86.56,1.48,4.53,3.27,11.91,5.38,7.45,2.11,11.7,2.67,12.75,1.69,1.62-1.55,1.3-7.62-.95-18.24-2.25-10.54-4.43-15.88-6.54-16.02Zm25.83,211.77c4.99,2.39,8.36,2.78,10.12,1.16,1.83-1.69,2.46-8.08,1.9-19.19-.56-11.31-2.21-17.6-4.95-18.87-1.48-.63-4.46,2.53-8.96,9.49-4.43,6.96-6.64,11.81-6.64,14.55v.11c.14,5.83,2.99,10.08,8.54,12.75Zm-320.56-48.38c4.43-9.42,6.08-14.72,4.95-15.92-1.26-1.26-5.87-2.74-13.81-4.43-8.08-1.69-12.97-2.11-14.65-1.26-2.18,1.05-4.67,3.97-7.48,8.75-2.81,4.71-4.11,7.98-3.9,9.8.28,1.9,4.01,5.38,11.17,10.44,7.17,5.06,11.81,7.45,13.91,7.17,2.11-.28,5.38-5.13,9.8-14.55Zm30.68-72.42c8.57,3.87,14.51,5.83,17.81,5.9,3.09-.98,8.15-8.15,15.18-21.5,7.03-13.35,10.05-21.5,9.07-24.46-.56-1.19-3.58-2.32-9.07-3.37l-14.34-1.02c-7.28,5.78-16.13,12.68-26.56,20.73-.26.2-.5.4-.76.61-1.4,2.78-2.56,5.5-3.46,8.14-.98,2.88-1.48,4.95-1.48,6.22.28,1.9,4.81,4.81,13.6,8.75Zm54.81,126.28c2.32-.35,4.22-9.87,5.69-28.57,1.48-18.76,1.12-28.92-1.05-30.46-2.04-1.41-7.52,1.23-16.44,7.91-8.85,6.68-13.35,11.21-13.49,13.6-.14,2.46,3.48,9.35,10.86,20.66,7.52,11.53,12.33,17.15,14.44,16.87Z"/>
      <path class="cls-3" d="m282.38,403.23c4.39-.88,8.67-1.91,12.86-3.07-3.87,5.46-8.36,10.32-13.49,14.59-.82-.93-1.69-1.58-2.63-1.93-2.11-.7-4.99.7-8.64,4.22-2.93,2.82-4.43,5.29-4.53,7.41-.35.13-.7.25-1.05.37-1.45-4.46-3.21-6.96-5.28-7.46-2.39-.63-5.2.67-8.43,3.9-2.17,2.17-3.46,4.12-3.91,5.86-.81.01-1.61,0-2.4,0-.64-5.76-2.37-8.95-5.18-9.55-2.03-.45-4.21-.05-6.52,1.14-.97.5-1.95,1.13-2.97,1.91-1.58,1.27-2.74,2.47-3.5,3.61-4.07-1.44-6.96-3.28-8.66-5.51,2.15-4.83,3.98-9.91,5.51-15.23,4.53,1.08,9.21,1.87,14.04,2.37,13.75,1.44,28.68.56,44.79-2.63Zm169.92-142.73c-2.81,12.79-17.08,26.35-42.8,40.69-26.77,14.9-53.3,23.16-79.59,24.77-25.16,1.55-49.3-.28-72.42-5.48-24.32-5.48-41.22-13.42-50.7-23.82-3.23-3.51-5.31-4.88-6.22-4.11-.84.77-.11,2.92,2.21,6.43,2.5,3.75,6.09,7.22,10.72,10.43,8.66,6,21.02,11.07,37.14,15.19,24.74,6.32,51.13,8.64,79.16,6.96,16.75-1.03,33.9-4.82,51.42-11.34,8.57-3.19,17.23-7.03,25.99-11.52,18.67,30.71,27.54,64.76,26.63,102.16-1.5.17-3.29,2.15-5.37,5.97-2,3.64-2.77,6.71-2.37,9.22-.13.09-.24.18-.37.27-.09.06-.19.13-.28.19-2.53-4.38-4.76-6.7-6.67-6.94-2.39-.28-4.88,2.25-7.48,7.59-1.61,3.17-2.5,5.66-2.68,7.46-.34.11-.66.23-1.01.34-.51.17-1,.31-1.5.46-.36-.56-.73-1.13-1.14-1.73-3.65-5.41-6.5-8.08-8.54-8.01-1.84.06-3.99,1.97-6.46,5.69-.27.41-.54.82-.82,1.27-1.6,2.57-2.64,4.72-3.15,6.49-7.35.16-13.4-1.39-18.15-4.69-6.89-4.85-13.74-13.63-20.56-26.35-6.08-11.35-9.33-20.26-9.75-26.73,3.43-2.23,6.75-4.59,9.96-7.11,5.62-4.43,8.08-7.1,7.38-8.01-.77-.98-4.67.91-11.7,5.69-18.48,12.58-39.07,21.12-61.77,25.62-20.61,4.08-39.39,4.12-56.35.14,1.01-4.26,1.85-8.66,2.49-13.21,2.6-18.41,1.72-35.52-2.64-51.34-1.58-5.68-2.92-9.08-4.03-10.19-.37-.37-.72-.49-1.03-.35-1.26.56-1.05,4.74.63,12.54,3.37,15.6,3.72,32.05,1.05,49.33-2.85,18.5-8.77,34.37-17.76,47.65-1.24-1.46-2.63-2.31-4.17-2.53-2.88-.42-5.52,1.37-7.91,5.38-1.52,2.6-2.36,4.99-2.54,7.18-.41.12-.82.24-1.25.35-.52-2.21-1.42-4.13-2.74-5.74-1.62-1.97-3.44-3.02-5.48-3.16-2.81-.21-5.41,1.44-7.8,4.95-.06.09-.11.17-.17.26-1.38,2.11-2.2,4.05-2.47,5.83-.36,0-.71-.02-1.06-.03,0-.02,0-.03,0-.05.14-2.74-.6-5.24-2.21-7.48-1.69-2.25-3.69-3.51-6.01-3.79-2.81-.35-5.52.63-8.12,2.95-1.43,1.21-2.45,2.47-3.07,3.77-1.55-.8-3.02-1.71-4.41-2.72-11.88-8.71-18.27-28.29-19.19-58.71-.22-7.49-.1-14.54.34-21.14,1.28-19.16,5.3-34.57,12.1-46.22,4.43-7.66,5.83-11.6,4.22-11.81-1.55-.28-4.36,2.92-8.43,9.59-3.02,4.92-5.57,10.26-7.68,15.98-2.46-3.46-5.17-6.78-8.14-9.97-5.27-5.62-8.26-7.84-8.96-6.64-.7,1.19,1.34,4.57,6.11,10.12,3.36,3.87,6.33,8.11,8.93,12.7-4.43,14.92-6.05,32.29-4.82,52.13.31,5.43.87,10.6,1.65,15.54,1.15,7.32,2.81,14.09,4.99,20.31.5,1.43,1.02,2.81,1.55,4.13-.5.65-1.01,1.28-1.55,1.88-.36.4-.73.78-1.12,1.16-1.67-3.71-3.72-5.65-6.15-5.8-2.88-.21-5.76,1.79-8.64,6.01-2.17,3.15-3.24,5.85-3.23,8.11-.96.19-1.96.36-2.98.52-.04-.18-.07-.34-.11-.52-1.55-6.75-4.08-10.44-7.59-11.07-2.32-.42-4.99.77-8.01,3.58-2.88,2.74-4.43,5.31-4.64,7.7-.03.41-.02.82.05,1.22-1.02-.05-2.03-.12-3.01-.21-.09-.56-.19-1.14-.3-1.75-1.26-6.75-3.41-10.44-6.43-11.07-2.67-.56-5.76.56-9.28,3.37-1.86,1.49-3.19,2.96-4,4.4-1.02-.49-2.01-1-2.95-1.55-8.29-4.85-14.69-17.64-19.19-38.37-1.59-7.23-2.62-14.23-3.11-20.99-.99-13.8.32-26.63,3.95-38.46,4.5-14.69,13.56-29.62,27.2-44.8,8.29-9.23,19.5-19.68,33.6-31.32l-.92,1.81c-1.55,3.37-2.32,5.9-2.32,7.59,0,2.95,5.31,6.75,15.92,11.38,10.05,4.43,17.29,6.64,21.71,6.64s11.35-8.05,20.13-24.14c8.78-15.95,12.23-25.86,10.33-29.73-1.05-2.04-5.17-3.69-12.33-4.95l-11.79-.74c4.12-3.31,7.6-6.16,10.42-8.53,9.78-8.32,17.28-15.85,22.51-22.58-.63,6.48-1.08,12.89-1.33,19.21-.28,6.75.32,10.44,1.79,11.07.06.03.12.04.19.05,1.31.24,2.23-3.35,2.77-10.8,2.04-27.06,6.47-52.92,13.28-77.58,3.05-11.02,5.93-19.59,8.64-25.77,3.03-6.9,5.84-10.8,8.43-11.65,3.02-1.05,8.96.21,17.81,3.79,9.07,3.58,17.04,7.98,23.93,13.18,5.34,4.15,8.57,5.87,9.7,5.17,1.17-.62-.75-3.28-5.74-7.98,16.83-5.33,35.14-8.42,54.97-9.21,19.75-.84,39.25.6,58.5,4.32l14.13.84c.42-1.05-3.72-2.71-12.44-4.95-3.18-.81-6.44-1.51-9.75-2.15,5.34-3.05,12.87-5.95,22.61-8.7,12.3-3.51,20.17-4.5,23.61-2.95,3.65,1.69,7.62,8.15,11.91,19.4.11.3.21.59.32.88,3.52,9.43,5.72,18.49,6.63,27.2-.03-.05-.06-.1-.1-.14-3.41-4.94-5.98-8.17-7.7-9.68-1.05-.92-1.78-1.21-2.21-.86-1.19.91.95,5.55,6.43,13.91,13.28,20.17,22.94,42.87,28.99,68.1,5.41,22.56,6.64,40.48,3.69,53.76ZM45.73,342.09c.49,3.65,5.38,8.71,14.65,15.18,9.14,6.4,14.93,9.1,17.39,8.12,3.23-1.19,7.38-7.41,12.44-18.66,5.06-11.31,6.82-18.2,5.27-20.66-1.69-2.67-7.59-4.95-17.71-6.85l-18.24-.84c-2.95,1.55-6.08,5.06-9.38,10.54-3.3,5.62-4.78,10.01-4.43,13.18Zm346.91,39.11c.21,7.24,4.25,12.4,12.12,15.5,6.89,2.67,11.63,3.02,14.23,1.05,3.16-2.32,4.15-10.93,2.95-25.83-1.19-15.18-4.18-22.8-8.96-22.87-2.95-.07-7.13,4.22-12.54,12.86-5.27,8.5-7.87,14.93-7.8,19.29Zm-213.99-49.02c-2.25-2.11-9.03.63-20.34,8.22-11.53,7.8-17.39,14.27-17.6,19.4-.21,5.34,4.36,14.41,13.7,27.2,9.35,12.86,15.5,18.41,18.45,16.66,4.29-2.46,7.27-14.09,8.96-34.89,1.62-20.8.56-32.99-3.16-36.58Zm221.89-142.52c1.48.07,2.35-1.83,2.64-5.69.35-4.43,1.19-8.57,2.53-12.44,1.41-4.36,1.69-6.68.84-6.96-.91-.21-2.35,1.69-4.32,5.69-2.18,4.5-3.37,9.07-3.58,13.7-.21,3.79.42,5.69,1.9,5.69Zm-9.38,85.49c-1.05,1.76-.98,2.92.21,3.48s2.53-.07,4.01-1.9l2.21-3.69c.42-1.19.49-1.93.21-2.21-.42-.35-1.41-.04-2.95.95-1.69.98-2.92,2.11-3.69,3.37Zm-25.4-85.17c-6.04,10.47-8.4,17.22-7.06,20.24.84,2.04,5.62,4.5,14.34,7.38,8.85,2.95,14.58,3.76,17.18,2.42,3.02-1.48,3.23-9.28.63-23.4-2.67-14.2-6.22-21.5-10.65-21.93-3.51-.35-8.33,4.74-14.44,15.28Zm-3.16,88.76c-.98-.91-2.49-1.58-4.53-2l-3.27-.11c-.28.49.04,1.3.95,2.42.91,1.19,2.14,2.18,3.69,2.95,1.83.91,3.13.91,3.9,0,.77-.91.53-2-.74-3.27Zm-40.16-133.66c0,3.65,4.04,8.12,12.12,13.39,7.73,5.06,13.91,7.73,18.55,8.01,5.83.28,12.44-7.8,19.82-24.24,2.95-6.61,4.85-12.37,5.69-17.29.91-5.34.28-8.22-1.9-8.64-6.4-1.19-17.08,2.25-32.05,10.33-14.83,8.01-22.24,14.16-22.24,18.45Zm-11.91,38.26c3.44,4.57,5.87,7.17,7.27,7.8,1.19.56,2.99-.53,5.38-3.27,2.32-2.67,3.44-4.78,3.37-6.32-.07-1.9-1.19-5.45-3.37-10.65-2.39-5.69-4.39-8.61-6.01-8.75-1.55-.07-3.83,1.26-6.85,4.01-3.02,2.88-4.67,5.27-4.95,7.17-.28,1.83,1.44,5.17,5.17,10.01Zm-26.99-9.38c4.36,4.85,8.05,10.26,11.07,16.23,1.83,3.51,3.48,5.06,4.95,4.64,1.41-.49,1.34-2.71-.21-6.64-1.05-2.74-2.81-5.8-5.27-9.17-2.32-3.23-4.71-5.97-7.17-8.22-4.57-4.15-7.31-5.83-8.22-5.06-.84.77.77,3.51,4.85,8.22Zm-59.56,77.69c.63,3.37,4.67,6.36,12.12,8.96,6.75,2.46,14.9,4.18,24.46,5.17,9.49.98,17.81,1.05,24.98.21,7.8-.98,12.3-2.95,13.49-5.9,2.25-5.34,2.71-12.51,1.37-21.5-1.26-8.64-3.9-17.39-7.91-26.25-9.56-20.87-20.98-32.08-34.26-33.63-9.42-1.05-18.24,6.75-26.46,23.4-8.36,17.01-10.96,33.52-7.8,49.54Zm221.47-.63c-.91-.28-1.62,1.69-2.11,5.9-.28,2.32-.91,4.29-1.9,5.9-.91,1.55-2.35,3.06-4.32,4.53-5.34,3.87-13.39,8.15-24.14,12.86-11.6,5.06-21.61,8.47-30.04,10.23-18.76,3.79-46.66,3.9-83.7.32-34.22-3.3-55.27-7.1-63.14-11.38l-4.22-3.16c-1.34-1.48-2.6-3.58-3.79-6.32-1.97-4.64-3.41-6.68-4.32-6.11s-.84,3.06.21,7.48c.56,2.46,1.44,4.71,2.64,6.75,1.34,2.39,2.81,4.11,4.43,5.17,9.77,5.9,33.2,10.33,70.31,13.28,37.11,3.02,64.62,2.71,82.54-.95,9.84-1.97,21.47-6.15,34.89-12.54,13-6.18,21.22-11.31,24.67-15.39l2.11-3.48c.7-1.76,1.09-4.01,1.16-6.75.07-3.87-.35-5.97-1.26-6.32Zm-4.95-58.5c-6.4-14.55-13-21.82-19.82-21.82-7.87,0-12.4,12.16-13.6,36.47-.49,9.63-.18,18.52.95,26.67,1.12,8.5,2.85,13.7,5.17,15.6,2.46,2.11,8.22,1.44,17.29-2,9.35-3.51,14.55-7.52,15.6-12.02,2.95-13.28,1.09-27.58-5.59-42.9Z"/>
      <path class="cls-1" d="m454.31,207.17c-5.62-23.46-14.12-44.47-25.46-63.04-.71-12.22-2.96-24.38-6.8-36.47-4.5-14.05-9.49-22.31-14.97-24.77-5.55-2.53-15.46-1.41-29.73,3.37-11.55,3.85-20.37,7.88-26.47,12.08-12.39-1.91-25.58-2.72-39.62-2.38-.3,0-.6.02-.9.03.74-12.39-5.14-23.96-17.65-34.71-14.27-12.28-33.39-18.93-57.31-19.97-12.83-4.65-27.67-7.27-44.52-7.86-25.58-.98-42.8-3.41-51.65-7.27-7.87-3.51-13.91-10.75-18.13-21.71-.98-2.74-2-4.22-3.06-4.43-1.05-.21-2.88.7-5.48,2.74-5.76,4.5-9.59,11.98-11.49,22.45-.09.52-.17,1.03-.24,1.54l-.6-.49c-2.67-1.9-4.6-2.39-5.8-1.48-1.41,1.12-1.97,3.48-1.69,7.06l.69,4.25c-3.15-1.69-6.54-3.18-10.17-4.47-9.35-3.3-17.78-4.46-25.3-3.48-4.01.49-6.11,1.34-6.32,2.53-.21,1.05,1.12,3.44,4.01,7.17,3.04,3.89,5.07,8.57,6.15,14.01-1.46-.74-3.01-1.26-4.67-1.57-2.18-.42-3.55-.42-4.11,0-.56.49-.53,1.55.11,3.16,3.16,8.71,2.39,20.06-2.32,34.05-4.43,13.21-12.83,30.08-25.19,50.6C-.62,181.48-6.7,218.83,7.36,250.17c5.41,12.09,13.32,21.93,23.72,29.52,8.09,5.84,16.18,9.38,24.27,10.64-11.21,13.38-18.81,26.74-22.79,40.06-5.62,18.97-6.08,39.64-1.37,61.98,4.64,21.71,11.95,35.49,21.93,41.32,2.17,1.27,4.52,2.37,7.02,3.31,1.3,1.73,3.86,3.61,7.74,5.65,5.69,3.02,9.63,3.79,11.81,2.32.71-.43,1.03-1.76.97-3.98,2.05.11,4.16.17,6.33.16,1.38.96,3.13,1.88,5.24,2.77,6.11,2.67,9.84,3.37,11.17,2.11.97-.83,1.24-2.92.83-6.23,1.5-.25,2.94-.52,4.33-.84,1.56,1.17,4.01,2.23,7.38,3.17,5.34,1.48,8.92,1.69,10.75.63,1.41-.84,1.23-4.64-.53-11.38-.02-.07-.04-.13-.06-.2,1.1-.9,2.11-1.85,3.01-2.86.05-.06.1-.12.15-.18,3.07,6.19,6.64,10.79,10.71,13.78,2.55,1.86,5.5,3.37,8.84,4.53.84,2.09,2.42,4.44,4.76,7.07,3.3,3.79,5.73,5.59,7.27,5.38,1.34-.14,2.92-2.04,4.74-5.69.68-1.41,1.22-2.72,1.64-3.92.89.01,1.8,0,2.72,0,1.04,2.41,3.1,4.67,6.18,6.78,3.72,2.46,6.43,3.37,8.12,2.74,1.34-.49,2.46-2.35,3.37-5.59.58-2.11.88-4.12.89-6.03.58-.13,1.15-.27,1.7-.41,1.39,1.75,4.29,3.23,8.69,4.44l9.91.63c1.12-1.26.77-5.06-1.05-11.38-.28-.96-.57-1.84-.88-2.68.5-.57.98-1.14,1.41-1.75,2.59-3.7,4.94-7.6,7.05-11.68,2.34,2.3,6.14,4.14,11.41,5.53,1.28,1.63,3.67,3.43,7.25,5.41,5.27,2.81,8.57,3.79,9.91,2.95,1-.71,1.41-3.26,1.22-7.59l2.66.08c1.19,1.76,4.06,3.46,8.67,5.09,5.55,1.97,8.68,2.42,9.38,1.37.9-1.34.97-3.89.27-7.59.88-.27,1.76-.58,2.65-.92,1.69.99,4.14,1.93,7.42,2.82,5.83,1.55,9.28,1.86,10.33.95,1.05-.98.77-4.18-.84-9.59-.36-1.21-.74-2.29-1.15-3.28.7-.54,1.4-1.09,2.09-1.67,7.27-6,13.47-12.95,18.64-20.83,9.48-3.28,18.35-7.35,26.63-12.2.73,6.5,4.19,15.46,10.39,26.91,7.17,13.28,14.09,22.28,20.77,26.99,6.27,4.4,14.46,6.16,24.57,5.3,1.92.9,5.32,1.56,10.22,1.98,7.45.63,11.38.11,11.81-1.58.28-1.09-.13-2.76-1.2-4.98.85-.28,1.68-.58,2.51-.87,1.92.99,5.01,1.72,9.34,2.16,6.04.56,9.38.14,10.01-1.26.58-1.21-.35-4.25-2.74-9.07.57-.38,1.14-.77,1.68-1.16.03-.02.06-.05.1-.07,1.56.48,3.73.89,6.54,1.23l9.38-.32c.84-1.41-.14-4.92-2.95-10.54-1.28-2.59-2.53-4.61-3.76-6.05,1.54-40.84-7.04-76.76-25.71-107.78,27.36-14.82,42.6-29.31,45.71-43.45,2.88-13,1.48-31.38-4.22-55.13Zm-164.02-141.15c9.98,9.45,14.61,19.51,13.93,30.19-6.33.31-12.54.84-18.62,1.62-1.34-16.25-9.21-30.2-23.66-41.83-4.01-3.24-8.37-6.12-13.06-8.66,17.23,2.68,31.04,8.9,41.42,18.68ZM104.87,29.12c.84-7.52,3.62-13.88,8.33-19.08,1.41-1.62,2.42-2.32,3.06-2.11.56.14,1.26,1.16,2.11,3.06,3.87,8.85,10.15,15.14,18.87,18.87,10.75,4.64,28.6,7.41,53.55,8.33,29.16,1.05,51.86,8.47,68.1,22.24,12.74,10.82,19.78,23.55,21.11,38.2-11.28,1.74-22.11,4.31-32.5,7.71-5.81-4.45-12.73-8.33-20.76-11.64-10.33-4.22-17.67-5.62-22.03-4.22-7.87,2.6-15.28,18.38-22.24,47.33-3.14,13.15-5.59,26-7.35,38.58-7.78-5.71-13.84-12-18.16-18.86-6.18-9.84-11.84-24.84-16.97-45.01-4.22-16.58-7.8-28.43-10.75-35.52-4.78-11.45-11.28-21.4-19.5-29.83-4.08-4.29-5.69-10.3-4.85-18.03Zm-7.7.74c.63-.28,1.58.21,2.85,1.48l.32.38c-.15,3.43.14,6.55.87,9.35-1.2-.9-2.44-1.76-3.74-2.58l-.93-5.88c-.14-1.55.07-2.46.63-2.74Zm-35.63,8.54c-1.62-2.53-2.32-4.04-2.11-4.53.21-.56,1.79-.95,4.74-1.16,6.32-.35,13.46.98,21.4,4.01,7.74,3.03,14.13,6.99,19.2,11.86.48.64,1,1.26,1.56,1.85,7.66,7.94,13.39,16.8,17.18,26.56,2.46,6.18,6.18,19.57,11.17,40.16,4.64,18.97,9.45,32.68,14.44,41.11,5.01,8.45,13,16.49,23.97,24.1-7.58,10.13-18.24,21.11-31.98,32.93l-37.26,30.17-5.96,4.82c-6.86,5.56-13.08,10.84-18.67,15.85-7.35-2.53-14.24-6.89-20.65-13.11-6.89-6.64-12.41-14.63-16.58-23.93-.42-.94-.84-1.88-1.24-2.84-10.4-25.51-9.42-54.53,2.95-87.07,8.36-18.83,14.51-34.58,18.45-47.22,7.24-23.61,7.03-41.46-.63-53.55Zm73.16,189.25l14.34,1.02c5.48,1.05,8.5,2.18,9.07,3.37.98,2.95-2.04,11.1-9.07,24.46-7.03,13.35-12.09,20.52-15.18,21.5-3.3-.07-9.24-2.04-17.81-5.9-8.78-3.94-13.32-6.85-13.6-8.75,0-1.26.49-3.34,1.48-6.22.9-2.64,2.06-5.36,3.46-8.14.26-.2.5-.4.76-.61,10.44-8.05,19.28-14.95,26.56-20.73Zm-98.14,48.03c-9.84-7.24-17.39-16.55-22.66-27.93-11.6-25.01-9.77-53.93,5.46-86.77,3.13-6.75,6.82-13.67,11.09-20.75,7.94-13.14,14.44-25.86,19.5-38.16,6.47-15.46,9.59-27.97,9.38-37.53l-.63-6.32-.42-3.37,2,.11c.7.21,1.41.52,2.12.94.95,9.08-.49,20.04-4.34,32.9-2.25,7.66-5.59,16.62-10.01,26.88l-9.28,20.98c-12.13,29.54-14.34,57.41-6.69,83.6.19.66.36,1.33.57,1.99,7.77,25.08,21.93,40.94,42.45,47.65-6.13,5.67-11.4,10.96-15.8,15.87-7.3-1.01-14.88-4.37-22.75-10.08Zm39.42,165.08c-.22.28-.71.34-1.43.21-1.1-.2-2.76-.86-5-2.01-3.72-1.97-5.62-3.55-5.69-4.74,0-1.49.99-3.02,2.96-4.58.07-.06.13-.11.2-.17,2.11-1.62,3.9-2.18,5.38-1.69,1.26.35,2.35,2.46,3.27,6.32.84,3.72.95,5.94.32,6.64Zm24.14,1.16c-.26.35-.87.44-1.8.28-1.11-.19-2.67-.73-4.73-1.65-3.87-1.76-5.8-3.44-5.8-5.06v-.21c.14-1.41,1.02-2.95,2.64-4.64.11-.11.22-.21.33-.32,1.64-1.58,3.22-2.23,4.73-1.9,1.69.35,3.06,2.57,4.11,6.64.98,3.79,1.16,6.08.53,6.85Zm23.19-2.42c-.32.29-.88.41-1.66.39-1.12-.03-2.7-.37-4.77-1.03-3.65-1.19-5.59-2.53-5.8-4.01-.37-1.97.15-3.94,1.56-5.91.2-.28.41-.56.65-.83,1.69-2.11,3.23-3.06,4.64-2.85,1.69.28,3.16,2.67,4.43,7.17,1.19,4.22,1.51,6.57.95,7.06Zm39.32,10.96c-.91,1.97-1.76,2.99-2.53,3.06-.51,0-1.19-.44-2.03-1.32-.55-.57-1.17-1.32-1.87-2.27-1.97-2.53-2.99-4.71-3.06-6.54,0-1.39.69-2.68,2.05-3.88.09-.08.17-.16.27-.23,1.48-1.26,2.88-1.83,4.22-1.69,1.12.14,2.14.84,3.06,2.11,1.05,1.41,1.55,3.02,1.48,4.85-.07,1.97-.6,3.94-1.58,5.9Zm21.71.84c-.63,1.83-1.23,2.85-1.79,3.06-.22.09-.5.1-.83.04-.93-.17-2.31-.96-4.13-2.36-2.53-2.04-3.9-3.87-4.11-5.48-.18-1.5.18-3.05,1.08-4.66.15-.27.32-.55.5-.82,1.26-1.97,2.71-2.99,4.32-3.06,1.12-.14,2.28.49,3.48,1.9,1.34,1.48,2.11,3.3,2.32,5.48.28,1.83,0,3.79-.84,5.9Zm20.87-2.64c-.26.23-.84.27-1.7.16-1.02-.14-2.44-.5-4.3-1.11-3.58-1.26-5.55-2.74-5.9-4.43-.3-1.59.04-3.29.98-5.08.18-.34.37-.68.6-1.03,1.34-2.11,2.67-3.09,4.01-2.95,1.34,0,2.81,1.12,4.43,3.37,1.19,1.69,1.93,3.9,2.21,6.64.28,2.53.18,4.01-.32,4.43Zm36.05-14.44c-.29.2-.87.15-1.69-.11-.95-.3-2.24-.89-3.89-1.79-3.23-1.76-4.88-3.48-4.95-5.17-.06-1.22.62-2.45,2.05-3.67.21-.18.44-.36.69-.55,1.97-1.48,3.65-1.97,5.06-1.48,1.48.49,2.46,2.71,2.95,6.64.42,3.72.35,5.76-.21,6.11Zm21.08-.84c-.21.21-.67.27-1.35.2-.92-.1-2.25-.44-4.02-1.04-3.23-1.05-5.06-2.32-5.48-3.79-.31-1.29.25-2.78,1.67-4.45.2-.23.41-.47.65-.71,1.9-1.9,3.55-2.67,4.95-2.32,1.41.35,2.49,2.39,3.27,6.11.7,3.51.81,5.52.32,6.01Zm20.45-4.43c-.21.27-.72.36-1.51.3-1.07-.08-2.67-.46-4.82-1.15-3.87-1.26-5.9-2.6-6.11-4.01-.19-1.18.51-2.64,2.08-4.37.21-.23.42-.46.66-.69,2.04-1.97,3.65-2.88,4.85-2.74,1.41.14,2.71,2.18,3.9,6.11,1.12,3.72,1.44,5.9.95,6.54Zm-1.06-14.2c-.82-.93-1.69-1.58-2.63-1.93-2.11-.7-4.99.7-8.64,4.22-2.93,2.82-4.43,5.29-4.53,7.41-.35.13-.7.25-1.05.37-1.45-4.46-3.21-6.96-5.28-7.46-2.39-.63-5.2.67-8.43,3.9-2.17,2.17-3.46,4.12-3.91,5.86-.81.01-1.61,0-2.4,0-.64-5.76-2.37-8.95-5.18-9.55-2.03-.45-4.21-.05-6.52,1.14-.97.5-1.95,1.13-2.97,1.91-1.58,1.27-2.74,2.47-3.5,3.61-4.07-1.44-6.96-3.28-8.66-5.51,2.15-4.83,3.98-9.91,5.51-15.23,4.53,1.08,9.21,1.87,14.04,2.37,13.75,1.44,28.68.56,44.79-2.63,4.39-.88,8.67-1.91,12.86-3.07-3.87,5.46-8.36,10.32-13.49,14.59Zm123.02,27.9c-.12.23-.46.39-1,.47-1.08.17-2.98.05-5.75-.37-4.29-.63-6.78-1.44-7.48-2.42-.33-1.2.3-3.11,1.86-5.7.08-.14.16-.27.25-.41,1.69-2.81,2.92-4.18,3.69-4.11,1.34.07,3.2,2,5.59,5.8,2.25,3.72,3.2,5.97,2.85,6.75Zm21.19-5.48l-1.39.04-5.25.17c-4.22-.49-6.43-1.26-6.64-2.32-.25-1.05.24-2.81,1.46-5.27.17-.34.35-.69.54-1.06,1.55-3.02,2.74-4.5,3.58-4.43,1.12.21,2.78,2.25,4.95,6.11,2.25,3.87,3.16,6.11,2.74,6.75Zm13.18-16.23c1.9,3.37,2.64,5.41,2.21,6.11l-1.63.09-3.96.22c-3.44-.49-5.31-1.16-5.59-2-.61-1.49-.43-3.37.52-5.63.04-.09.07-.18.11-.27,1.05-2.39,2.18-3.65,3.37-3.79,1.41-.07,3.06,1.69,4.95,5.27Zm13.18-160.44c-2.81,12.79-17.08,26.35-42.8,40.69-26.77,14.9-53.3,23.16-79.59,24.77-25.16,1.55-49.3-.28-72.42-5.48-24.32-5.48-41.22-13.42-50.7-23.82-3.23-3.51-5.31-4.88-6.22-4.11-.84.77-.11,2.92,2.21,6.43,2.5,3.75,6.09,7.22,10.72,10.43,8.66,6,21.02,11.07,37.14,15.19,24.74,6.32,51.13,8.64,79.16,6.96,16.75-1.03,33.9-4.82,51.42-11.34,8.57-3.19,17.23-7.03,25.99-11.52,18.67,30.71,27.54,64.76,26.63,102.16-1.5.17-3.29,2.15-5.37,5.97-2,3.64-2.77,6.71-2.37,9.22-.13.09-.24.18-.37.27-.09.06-.19.13-.28.19-2.53-4.38-4.76-6.7-6.67-6.94-2.39-.28-4.88,2.25-7.48,7.59-1.61,3.17-2.5,5.66-2.68,7.46-.34.11-.66.23-1.01.34-.51.17-1,.31-1.5.46-.36-.56-.73-1.13-1.14-1.73-3.65-5.41-6.5-8.08-8.54-8.01-1.84.06-3.99,1.97-6.46,5.69-.27.41-.54.82-.82,1.27-1.6,2.57-2.64,4.72-3.15,6.49-7.35.16-13.4-1.39-18.15-4.69-6.89-4.85-13.74-13.63-20.56-26.35-6.08-11.35-9.33-20.26-9.75-26.73,3.43-2.23,6.75-4.59,9.96-7.11,5.62-4.43,8.08-7.1,7.38-8.01-.77-.98-4.67.91-11.7,5.69-18.48,12.58-39.07,21.12-61.77,25.62-20.61,4.08-39.39,4.12-56.35.14,1.01-4.26,1.85-8.66,2.49-13.21,2.6-18.41,1.72-35.52-2.64-51.34-1.58-5.68-2.92-9.08-4.03-10.19-.37-.37-.72-.49-1.03-.35-1.26.56-1.05,4.74.63,12.54,3.37,15.6,3.72,32.05,1.05,49.33-2.85,18.5-8.77,34.37-17.76,47.65-1.24-1.46-2.63-2.31-4.17-2.53-2.88-.42-5.52,1.37-7.91,5.38-1.52,2.6-2.36,4.99-2.54,7.18-.41.12-.82.24-1.25.35-.52-2.21-1.42-4.13-2.74-5.74-1.62-1.97-3.44-3.02-5.48-3.16-2.81-.21-5.41,1.44-7.8,4.95-.06.09-.11.17-.17.26-1.38,2.11-2.2,4.05-2.47,5.83-.36,0-.71-.02-1.06-.03,0-.02,0-.03,0-.05.14-2.74-.6-5.24-2.21-7.48-1.69-2.25-3.69-3.51-6.01-3.79-2.81-.35-5.52.63-8.12,2.95-1.43,1.21-2.45,2.47-3.07,3.77-1.55-.8-3.02-1.71-4.41-2.72-11.88-8.71-18.27-28.29-19.19-58.71-.22-7.49-.1-14.54.34-21.14,1.28-19.16,5.3-34.57,12.1-46.22,4.43-7.66,5.83-11.6,4.22-11.81-1.55-.28-4.36,2.92-8.43,9.59-3.02,4.92-5.57,10.26-7.68,15.98-2.46-3.46-5.17-6.78-8.14-9.97-5.27-5.62-8.26-7.84-8.96-6.64-.7,1.19,1.34,4.57,6.11,10.12,3.36,3.87,6.33,8.11,8.93,12.7-4.43,14.92-6.05,32.29-4.82,52.13.31,5.43.87,10.6,1.65,15.54,1.15,7.32,2.81,14.09,4.99,20.31.5,1.43,1.02,2.81,1.55,4.13-.5.65-1.01,1.28-1.55,1.88-.36.4-.73.78-1.12,1.16-1.67-3.71-3.72-5.65-6.15-5.8-2.88-.21-5.76,1.79-8.64,6.01-2.17,3.15-3.24,5.85-3.23,8.11-.96.19-1.96.36-2.98.52-.04-.18-.07-.34-.11-.52-1.55-6.75-4.08-10.44-7.59-11.07-2.32-.42-4.99.77-8.01,3.58-2.88,2.74-4.43,5.31-4.64,7.7-.03.41-.02.82.05,1.22-1.02-.05-2.03-.12-3.01-.21-.09-.56-.19-1.14-.3-1.75-1.26-6.75-3.41-10.44-6.43-11.07-2.67-.56-5.76.56-9.28,3.37-1.86,1.49-3.19,2.96-4,4.4-1.02-.49-2.01-1-2.95-1.55-8.29-4.85-14.69-17.64-19.19-38.37-1.59-7.23-2.62-14.23-3.11-20.99-.99-13.8.32-26.63,3.95-38.46,4.5-14.69,13.56-29.62,27.2-44.8,8.29-9.23,19.5-19.68,33.6-31.32l-.92,1.81c-1.55,3.37-2.32,5.9-2.32,7.59,0,2.95,5.31,6.75,15.92,11.38,10.05,4.43,17.29,6.64,21.71,6.64s11.35-8.05,20.13-24.14c8.78-15.95,12.23-25.86,10.33-29.73-1.05-2.04-5.17-3.69-12.33-4.95l-11.79-.74c4.12-3.31,7.6-6.16,10.42-8.53,9.78-8.32,17.28-15.85,22.51-22.58-.63,6.48-1.08,12.89-1.33,19.21-.28,6.75.32,10.44,1.79,11.07.06.03.12.04.19.05,1.31.24,2.23-3.35,2.77-10.8,2.04-27.06,6.47-52.92,13.28-77.58,3.05-11.02,5.93-19.59,8.64-25.77,3.03-6.9,5.84-10.8,8.43-11.65,3.02-1.05,8.96.21,17.81,3.79,9.07,3.58,17.04,7.98,23.93,13.18,5.34,4.15,8.57,5.87,9.7,5.17,1.17-.62-.75-3.28-5.74-7.98,16.83-5.33,35.14-8.42,54.97-9.21,19.75-.84,39.25.6,58.5,4.32l14.13.84c.42-1.05-3.72-2.71-12.44-4.95-3.18-.81-6.44-1.51-9.75-2.15,5.34-3.05,12.87-5.95,22.61-8.7,12.3-3.51,20.17-4.5,23.61-2.95,3.65,1.69,7.62,8.15,11.91,19.4.11.3.21.59.32.88,3.52,9.43,5.72,18.49,6.63,27.2-.03-.05-.06-.1-.1-.14-3.41-4.94-5.98-8.17-7.7-9.68-1.05-.92-1.78-1.21-2.21-.86-1.19.91.95,5.55,6.43,13.91,13.28,20.17,22.94,42.87,28.99,68.1,5.41,22.56,6.64,40.48,3.69,53.76Zm-117.75-102.04c7.73,5.06,13.91,7.73,18.55,8.01,5.83.28,12.44-7.8,19.82-24.24,2.95-6.61,4.85-12.37,5.69-17.29.91-5.34.28-8.22-1.9-8.64-6.4-1.19-17.08,2.25-32.05,10.33-14.83,8.01-22.24,14.16-22.24,18.45,0,3.65,4.04,8.12,12.12,13.39Zm14.23-28.99c13.63-6.89,22.17-9.45,25.62-7.7,1.55.77-.74,7.59-6.85,20.45-6.18,13.07-11,19.64-14.44,19.71-4.36-.28-9.66-2.53-15.92-6.75-6.11-4.22-9.14-7.48-9.07-9.8.07-3.72,6.96-9.03,20.66-15.92Zm-30.99,61.67c1.19.56,2.99-.53,5.38-3.27,2.32-2.67,3.44-4.78,3.37-6.32-.07-1.9-1.19-5.45-3.37-10.65-2.39-5.69-4.39-8.61-6.01-8.75-1.55-.07-3.83,1.26-6.85,4.01-3.02,2.88-4.67,5.27-4.95,7.17-.28,1.83,1.44,5.17,5.17,10.01,3.44,4.57,5.87,7.17,7.27,7.8Zm-5.17-21.29c2.18-1.97,3.58-2.92,4.22-2.85.77.07,2.04,2.46,3.79,7.17,1.76,4.64,2.53,7.24,2.32,7.8l-1.9,2.95c-1.05,1.41-1.79,2.11-2.21,2.11-.49,0-2.18-1.86-5.06-5.59-2.88-3.87-4.36-6.25-4.43-7.17,0-.98,1.09-2.46,3.27-4.43Zm53.13,20.13c-6.04,10.47-8.4,17.22-7.06,20.24.84,2.04,5.62,4.5,14.34,7.38,8.85,2.95,14.58,3.76,17.18,2.42,3.02-1.48,3.23-9.28.63-23.4-2.67-14.2-6.22-21.5-10.65-21.93-3.51-.35-8.33,4.74-14.44,15.28Zm14.34-8.85c2.11.14,4.29,5.48,6.54,16.02,2.25,10.61,2.57,16.69.95,18.24-1.05.98-5.31.42-12.75-1.69-7.38-2.11-11.35-3.9-11.91-5.38-.56-1.62,1.58-6.57,6.43-14.86,4.99-8.36,8.57-12.47,10.75-12.33Zm-143.99,79.48c6.75,2.46,14.9,4.18,24.46,5.17,9.49.98,17.81,1.05,24.98.21,7.8-.98,12.3-2.95,13.49-5.9,2.25-5.34,2.71-12.51,1.37-21.5-1.26-8.64-3.9-17.39-7.91-26.25-9.56-20.87-20.98-32.08-34.26-33.63-9.42-1.05-18.24,6.75-26.46,23.4-8.36,17.01-10.96,33.52-7.8,49.54.63,3.37,4.67,6.36,12.12,8.96Zm32.38-72.57c4.44,3.37,8.72,8.55,12.84,15.55,5.41,9.21,9.42,19.57,12.02,31.1,2.46,11.03,2.78,18.76.95,23.19-1.74,4.03-12.63,4.93-32.66,2.7-4.27-4.07-7.24-10.43-8.87-19.15-1.48-8.22-1.62-17.08-.42-26.56,1.12-9.21,3.16-16.41,6.11-21.61,3.14-5.64,6.48-7.38,10.03-5.22Zm-35.65,27.04c3.58-11.38,8.29-20.1,14.13-26.14,3.87-4.01,7.45-5.83,10.75-5.48.81.09,1.61.25,2.41.44-2.02,1.26-3.94,3.25-5.78,5.99-3.94,5.97-6.64,13.98-8.12,24.03-1.48,10.19-1.26,19.75.63,28.67,1.58,7.18,4.11,12.88,7.57,17.11-16.13-2.21-24.46-5.24-24.96-9.1-1.55-11.31-.42-23.16,3.37-35.52Zm187.84-44.38c-7.87,0-12.4,12.16-13.6,36.47-.49,9.63-.18,18.52.95,26.67,1.12,8.5,2.85,13.7,5.17,15.6,2.46,2.11,8.22,1.44,17.29-2,9.35-3.51,14.55-7.52,15.6-12.02,2.95-13.28,1.09-27.58-5.59-42.9-6.4-14.55-13-21.82-19.82-21.82Zm7.3,73.23c-5.74,2.26-9.73,2.78-11.94,1.51-3.17-1.85-4.6-10.94-4.31-27.2.05-2.87.15-5.95.31-9.27.51-10.87,1.46-19.08,2.85-24.64.52-2.1,1.11-3.83,1.76-5.17,1.64-.02,3.4,1.54,5.3,4.73,2.39,3.94,4.39,9.31,6.01,16.13,3.86,16.3,3.86,30.94.03,43.92Zm13.04-9.14c-.48,2.23-3.26,4.58-8.32,7.06,4.37-15.6,3.85-31.44-1.59-47.54-2.32-6.82-5.09-11.95-8.33-15.39-1.3-1.41-2.53-2.36-3.7-2.9.51-.31,1.04-.47,1.59-.47,5.34,0,10.65,6.54,15.92,19.61,5.69,13.98,7.17,27.2,4.43,39.64Zm-363.25,84.44l-18.24-.84c-2.95,1.55-6.08,5.06-9.38,10.54-3.3,5.62-4.78,10.01-4.43,13.18.49,3.65,5.38,8.71,14.65,15.18,9.14,6.4,14.93,9.1,17.39,8.12,3.23-1.19,7.38-7.41,12.44-18.66,5.06-11.31,6.82-18.2,5.27-20.66-1.69-2.67-7.59-4.95-17.71-6.85Zm7.59,25.3c-4.43,9.42-7.7,14.27-9.8,14.55-2.11.28-6.75-2.11-13.91-7.17-7.17-5.06-10.89-8.54-11.17-10.44-.21-1.83,1.09-5.09,3.9-9.8,2.81-4.78,5.31-7.7,7.48-8.75,1.69-.84,6.57-.42,14.65,1.26,7.94,1.69,12.54,3.16,13.81,4.43,1.12,1.19-.53,6.5-4.95,15.92Zm319.4,52.18c6.89,2.67,11.63,3.02,14.23,1.05,3.16-2.32,4.15-10.93,2.95-25.83-1.19-15.18-4.18-22.8-8.96-22.87-2.95-.07-7.13,4.22-12.54,12.86-5.27,8.5-7.87,14.93-7.8,19.29.21,7.24,4.25,12.4,12.12,15.5Zm-7.38-16.66c0-2.74,2.21-7.59,6.64-14.55,4.5-6.96,7.48-10.12,8.96-9.49,2.74,1.26,4.39,7.55,4.95,18.87.56,11.1-.07,17.5-1.9,19.19-1.76,1.62-5.13,1.23-10.12-1.16-5.55-2.67-8.4-6.92-8.54-12.75v-.11Zm49.33-122.7c-.07,2.74-.46,4.99-1.16,6.75l-2.11,3.48c-3.44,4.08-11.67,9.21-24.67,15.39-13.42,6.4-25.05,10.58-34.89,12.54-17.92,3.65-45.43,3.97-82.54.95-37.11-2.95-60.54-7.38-70.31-13.28-1.62-1.05-3.09-2.78-4.43-5.17-1.19-2.04-2.07-4.29-2.64-6.75-1.05-4.43-1.12-6.92-.21-7.48s2.35,1.48,4.32,6.11c1.19,2.74,2.46,4.85,3.79,6.32l4.22,3.16c7.87,4.29,28.92,8.08,63.14,11.38,37.03,3.58,64.93,3.48,83.7-.32,8.43-1.76,18.45-5.17,30.04-10.23,10.75-4.71,18.8-9,24.14-12.86,1.97-1.48,3.41-2.99,4.32-4.53.98-1.62,1.62-3.58,1.9-5.9.49-4.22,1.19-6.18,2.11-5.9.91.35,1.34,2.46,1.26,6.32Zm-163.18-83.38c-4.08-4.71-5.69-7.45-4.85-8.22.91-.77,3.65.91,8.22,5.06,2.46,2.25,4.85,4.99,7.17,8.22,2.46,3.37,4.22,6.43,5.27,9.17,1.55,3.94,1.62,6.15.21,6.64-1.48.42-3.13-1.12-4.95-4.64-3.02-5.97-6.71-11.38-11.07-16.23Zm115.11,10.01c.21-4.64,1.41-9.21,3.58-13.7,1.97-4.01,3.41-5.9,4.32-5.69.84.28.56,2.6-.84,6.96-1.34,3.87-2.18,8.01-2.53,12.44-.28,3.87-1.16,5.76-2.64,5.69-1.48,0-2.11-1.9-1.9-5.69Zm-40.58,92.76c2.04.42,3.55,1.09,4.53,2,1.26,1.26,1.51,2.35.74,3.27-.77.91-2.07.91-3.9,0-1.55-.77-2.78-1.76-3.69-2.95-.91-1.12-1.23-1.93-.95-2.42l3.27.11Zm33.1-1.58c.77-1.26,2-2.39,3.69-3.37,1.55-.98,2.53-1.3,2.95-.95.28.28.21,1.02-.21,2.21l-2.21,3.69c-1.48,1.83-2.81,2.46-4.01,1.9s-1.26-1.72-.21-3.48Zm-232.86,65.25c-11.53,7.8-17.39,14.27-17.6,19.4-.21,5.34,4.36,14.41,13.7,27.2,9.35,12.86,15.5,18.41,18.45,16.66,4.29-2.46,7.27-14.09,8.96-34.89,1.62-20.8.56-32.99-3.16-36.58-2.25-2.11-9.03.63-20.34,8.22Zm18.24,29.41c-1.48,18.69-3.37,28.22-5.69,28.57-2.11.28-6.92-5.34-14.44-16.87-7.38-11.31-11-18.2-10.86-20.66.14-2.39,4.64-6.92,13.49-13.6,8.92-6.68,14.41-9.31,16.44-7.91,2.18,1.55,2.53,11.7,1.05,30.46Z"/>
      <path class="cls-4" d="m254.43,259.7c-16.13-2.21-24.46-5.24-24.96-9.1-1.55-11.31-.42-23.16,3.37-35.52,3.58-11.38,8.29-20.1,14.13-26.14,3.87-4.01,7.45-5.83,10.75-5.48.81.09,1.61.25,2.41.44-2.02,1.26-3.94,3.25-5.78,5.99-3.94,5.97-6.64,13.98-8.12,24.03-1.48,10.19-1.26,19.75.63,28.67,1.58,7.18,4.11,12.88,7.57,17.11Zm168.36-80.78c3.23,3.44,6.01,8.57,8.33,15.39,5.43,16.1,5.96,31.94,1.59,47.54,5.06-2.48,7.84-4.84,8.32-7.06,2.74-12.44,1.26-25.65-4.43-39.64-5.27-13.07-10.58-19.61-15.92-19.61-.56,0-1.09.16-1.59.47,1.17.54,2.4,1.49,3.7,2.9Zm-149.05,54.08c1.69-3.87,2.6-9.14,2.74-15.81.07-7.03-.74-12.9-2.42-17.6-1.69-4.43-3.65-6.64-5.9-6.64-2.39,0-4.39,2.14-6.01,6.43-1.83,4.64-2.6,10.65-2.32,18.03.14,6.11,1.05,11.17,2.74,15.18,1.55,3.79,3.37,5.69,5.48,5.69,2.25,0,4.15-1.76,5.69-5.27Zm142.2-10.44c1.69,0,3.09-1.55,4.22-4.64,1.19-3.44,1.76-8.26,1.69-14.44-.14-6.54-1.02-11.6-2.64-15.18-1.12-2.67-2.32-4.04-3.58-4.11-.24-.02-.49.04-.74.13-1.38,5.57-2.33,13.77-2.85,24.64-.16,3.32-.26,6.4-.31,9.27.31.73.65,1.41,1.04,2.01,1.05,1.55,2.11,2.32,3.16,2.32ZM72.4,427.79c-1.48-.49-3.27.07-5.38,1.69-.07.06-.13.11-.2.17-1.97,1.56-2.96,3.08-2.96,4.58.07,1.19,1.97,2.78,5.69,4.74,2.24,1.14,3.9,1.81,5,2.01.72.13,1.21.07,1.43-.21.63-.7.53-2.92-.32-6.64-.91-3.87-2-5.97-3.27-6.32Zm23.09.63c-1.52-.33-3.09.31-4.73,1.9-.11.11-.22.2-.33.32-1.62,1.69-2.49,3.23-2.64,4.64v.21c0,1.62,1.93,3.3,5.8,5.06,2.06.91,3.62,1.46,4.73,1.65.93.16,1.55.08,1.8-.28.63-.77.46-3.06-.53-6.85-1.05-4.08-2.42-6.29-4.11-6.64Zm22.45-3.16c-1.41-.21-2.95.74-4.64,2.85-.23.28-.45.56-.65.83-1.41,1.97-1.93,3.94-1.56,5.91.21,1.48,2.14,2.81,5.8,4.01,2.07.66,3.65,1,4.77,1.03.78.02,1.35-.11,1.66-.39.56-.49.25-2.85-.95-7.06-1.26-4.5-2.74-6.89-4.43-7.17Zm41.74,12.33c-1.34-.14-2.74.42-4.22,1.69-.09.08-.18.16-.27.23-1.36,1.2-2.05,2.49-2.05,3.88.07,1.83,1.09,4.01,3.06,6.54.69.94,1.31,1.69,1.87,2.27.84.87,1.52,1.32,2.03,1.32.77-.07,1.62-1.09,2.53-3.06.98-1.97,1.51-3.94,1.58-5.9.07-1.83-.42-3.44-1.48-4.85-.91-1.26-1.93-1.97-3.06-2.11Zm23.19,2.32c-1.19-1.41-2.35-2.04-3.48-1.9-1.62.07-3.06,1.09-4.32,3.06-.18.28-.35.55-.5.82-.9,1.6-1.26,3.16-1.08,4.66.21,1.62,1.58,3.44,4.11,5.48,1.82,1.4,3.19,2.19,4.13,2.36.33.06.61.05.83-.04.56-.21,1.16-1.23,1.79-3.06.84-2.11,1.12-4.08.84-5.9-.21-2.18-.98-4.01-2.32-5.48Zm20.45-2.32c-1.62-2.25-3.09-3.37-4.43-3.37-1.34-.14-2.67.84-4.01,2.95-.22.35-.42.69-.6,1.03-.95,1.79-1.28,3.49-.98,5.08.35,1.69,2.32,3.16,5.9,4.43,1.86.61,3.28.97,4.3,1.11.87.12,1.45.07,1.7-.16.49-.42.6-1.9.32-4.43-.28-2.74-1.02-4.95-2.21-6.64Zm35.21-16.13c-1.41-.49-3.09,0-5.06,1.48-.25.18-.47.36-.69.55-1.43,1.22-2.11,2.45-2.05,3.67.07,1.69,1.72,3.41,4.95,5.17,1.65.9,2.94,1.49,3.89,1.79.83.26,1.4.3,1.69.11.56-.35.63-2.39.21-6.11-.49-3.94-1.48-6.15-2.95-6.64Zm20.24-.21c-1.41-.35-3.06.42-4.95,2.32-.23.24-.45.48-.65.71-1.42,1.67-1.98,3.16-1.67,4.45.42,1.48,2.25,2.74,5.48,3.79,1.77.6,3.1.95,4.02,1.04.68.07,1.14.01,1.35-.2.49-.49.39-2.49-.32-6.01-.77-3.72-1.86-5.76-3.27-6.11Zm19.19-4.95c-1.19-.14-2.81.77-4.85,2.74-.24.24-.45.47-.66.69-1.57,1.73-2.27,3.19-2.08,4.37.21,1.41,2.25,2.74,6.11,4.01,2.15.69,3.74,1.06,4.82,1.15.79.06,1.3-.04,1.51-.3.49-.63.18-2.81-.95-6.54-1.19-3.94-2.49-5.97-3.9-6.11Zm118.38,13.81c-.77-.07-2,1.3-3.69,4.11-.09.14-.16.27-.25.41-1.57,2.6-2.2,4.5-1.86,5.7.7.98,3.2,1.79,7.48,2.42,2.77.42,4.67.54,5.75.37.54-.09.88-.24,1-.47.35-.77-.6-3.02-2.85-6.75-2.39-3.79-4.25-5.73-5.59-5.8Zm21.93-5.8c-.84-.07-2.04,1.41-3.58,4.43-.2.37-.38.72-.54,1.06-1.22,2.46-1.71,4.22-1.46,5.27.21,1.05,2.42,1.83,6.64,2.32l5.25-.17,1.39-.04c.42-.63-.49-2.88-2.74-6.75-2.18-3.87-3.83-5.9-4.95-6.11Zm15.92-8.64c-1.19.14-2.32,1.41-3.37,3.79-.04.09-.07.18-.11.27-.95,2.27-1.13,4.15-.52,5.63.28.84,2.14,1.51,5.59,2l3.96-.22,1.63-.09c.42-.7-.32-2.74-2.21-6.11-1.9-3.58-3.55-5.34-4.95-5.27Z"/>
    </g>
  </g>
</svg>